<?xml version="1.0" encoding="UTF-8"?>
<svg id="Layer_1" xmlns="http://www.w3.org/2000/svg" version="1.1" viewBox="0 0 208.95 208.95">
  <!-- Generator: Adobe Illustrator 29.1.0, SVG Export Plug-In . SVG Version: 2.1.0 Build 142)  -->
  <defs>
    <style>
      .st0 {
        fill: #fff;
      }
    </style>
  </defs>
  <polygon class="st0" points="46.21 173.48 48.14 175.02 49.4 171.47 46.21 173.48"/>
  <g>
    <path class="st0" d="M26.61,50.53l7.85,5.79c.82.63,1.42,1.02,1.85,1.02.23,0,.5-.12,1.07-.88.99-1.31,1.28-2.78.91-4.24-.37-1.45-1.4-2.86-3.01-4.03-1.64-1.22-3.16-1.83-4.51-1.83-1.6,0-3.03.86-4.32,2.6-.35.49-.54.81-.59.96.07.11.27.29.75.61"/>
    <path class="st0" d="M193.46,112.98l-4.76,3.53,1.89-5.73-4.87-3.6h5.95l1.8-5.59,1.73,5.59h5.97l-4.78,3.6,1.87,5.73-4.81-3.53ZM194.68,143.37l-1.51-.57.09-.38c.54-1.79.55-1.82-1.75-2.7l-2.12-.8c-.39-.15-.58-.17-.82-.17l-.42.02h-.05c-1.26.08-2.7.29-4.83.63l-1.76.29c-1.94.27-1.96.31-2.51,1.38l-.18.34-1.49-.56,2.75-7.25,1.49.56-.31,1.38-.02.14h.1l.4-.02c1.69-.19,3.63-.41,5.54-.66-1.07-1.21-2.61-2.75-3.68-3.83l-.47-.38-.25.39-.59,1.21-1.49-.57,2.34-6.27,1.5.57-.08.37c-.36,1.33-.33,1.47.87,3.02l.54.71c.85,1.09,1.69,2.21,3.09,3.68l.07.08c.56.62.62.67,1.48,1l2.4.89c.92.35,1.53.55,1.92.55.43,0,.64-.24,1.24-1.51l.14-.35,1.5.56-3.1,8.25ZM190.92,150.69c-.21.67-.98,2.93-1.96,4.44-2.62,4.15-5.73,5.03-7.9,5.03-1.59,0-3.22-.5-4.67-1.42-2.15-1.34-3.59-3.43-4.02-5.85-.47-2.49.14-5.14,1.71-7.67.98-1.55,2.1-2.66,2.73-3.25l.27-.29.21-.21.28.13c1.18.53,2.11.99,3.4,1.65l.64.31-.64,1.58-.37-.12c-.71-.22-1.38-.33-1.95-.33-1.33,0-2.27.58-3.12,1.97-1.95,3.06.02,6.2,2.81,7.94,1.68,1.07,3.39,1.63,4.92,1.63,1.75,0,3.17-.73,4.02-2.11,1.12-1.79.93-3.36-.71-6.04l-.17-.26,1.15-1.24.29.33c.83.84,2.36,2.47,3.01,3.42l.13.17-.05.2ZM178.08,169.77l-14.75-1.38,2.89,2.84c1.82,1.76,2.9,2.64,3.55,3.15l.5.18c.33,0,.84-.31,1.56-1l.3-.26,1.16,1.14-4.96,5.04-1.16-1.14.29-.31c.88-.99.73-1.39.44-1.76-.56-.71-1.45-1.77-3.2-3.49l-3.54-3.46c-1.16-1.16-1.5-1.45-2.08-1.55h-.17c-.46,0-.9.24-1.58.85l-.3.25-1.15-1.13,3.47-3.55,13.97.93-2.39-2.32c-1.79-1.79-2.88-2.64-3.56-3.14l-.46-.19c-.36,0-.87.32-1.59.97l-.28.29-1.15-1.13,4.93-5.04,1.15,1.13-.26.31c-.91.99-.73,1.4-.47,1.76.56.72,1.44,1.74,3.2,3.5l7.15,7-1.51,1.53ZM153.85,189.49l-.91-1.33.32-.24c1.45-1.13,1.47-1.15.07-3.2l-4.81-7.13c-.82-1.2-1.26-1.77-1.65-1.77-.24,0-.6.17-1.16.5l-.34.19-.91-1.33,10.22-6.91.23.33c.24.3,1.35,1.73,2.42,3.06l.25.34-1.32,1.07-.26-.28c-.83-.77-1.4-1.16-1.84-1.26l-.17-.02c-.41,0-1.07.32-2.07,1.02l-.8.54-.47.31.23.37,2.65,3.9,1.18-.78q1.52-1.05.74-2.6l-.17-.34,1.39-.95,3.55,5.24-1.39.95-.26-.27c-.64-.73-.95-1.07-1.21-1.07-.31,0-.83.35-1.47.78l-1.16.81,1.96,2.89c.86,1.25,1.22,1.64,1.48,1.64h.1c.37-.09.93-.46,1.7-.96,1.1-.74,1.69-1.4,1.75-1.96.1-.53-.04-1.37-.38-2.6l-.08-.33,1.55-.68.17.37c.42.9,1.47,3.33,1.67,4.06l.07.28-10.85,7.34ZM148.93,191.5c-1.25.98-2.93,2.31-4.73,3.08-1.62.68-3.18,1.03-4.69,1.03-3.54,0-6.37-1.91-7.79-5.28-1.1-2.6-1.02-5.19.18-7.49,1.1-2.06,3.05-3.76,5.56-4.82,1.4-.59,3.01-1.01,4.76-1.29l.3-.03.12.25c.42.75,1.04,1.93,2,3.69l.2.38-1.51.78-.21-.29c-.93-1.32-2-1.98-3.23-1.98-.64,0-1.29.16-2.05.49-2.83,1.19-3.67,4.37-2.08,8.1.62,1.51,2.46,5.04,5.75,5.04.69,0,1.4-.16,2.08-.47.34-.12.75-.31.93-.61.11-.15.24-.43-.04-1.05l-.86-2.08c-.44-.99-.54-1.07-.88-1.07-.37,0-.98.19-1.91.47l-.36.14-.68-1.6,7.56-3.19.66,1.57-.3.19q-.86.57-.29,1.9l.65,1.56c.3.71.66,1.49.96,1.98l.25.33-.32.25ZM124.9,200.37l-.32-1.54.96-.35c.39-.15.47-.22.48-.23,0-.02,0-.16-.36-.72-.19-.32-.43-.7-.69-1.09-.29-.47-.62-.99-.91-1.42l-3.79.76c-.09.66-.2,1.57-.27,2.46l-.02.24c-.07.58-.07.92,0,.97l.3.07.36-.05,1.02-.07.29,1.55-6.38,1.29-.29-1.56.33-.13c1.28-.41,1.48-.46,1.87-2.69l2.49-13.84,1.65-.87,2.75,4.6c1.36,2.29,2.96,4.89,4.72,7.71,1.08,1.72,1.44,1.89,2.08,1.89l.58-.03.38-.03.32,1.55-7.55,1.51ZM106.26,198.16c-.23.99-.88,3.54-1.17,4.23l-.1.27-13.09-.79.11-1.6h.39c1.82-.05,1.87-.05,2-2.52l.52-8.61c.15-2.47.1-2.47-1.47-2.69l-.38-.05.11-1.62,12.29.74v.4c0,.4,0,2.21.06,3.92v.41s-1.68.06-1.68.06l-.07-.36c-.17-1.12-.38-1.79-.67-2.14-.29-.34-1.02-.5-2.39-.6l-.96-.05-.48-.02h-.08l-.04.43-.3,4.7,1.42.11c.33.02.64.03.88.03.9,0,.94,0,1.27-1.66l.06-.36,1.69.11-.38,6.3-1.69-.09-.02-.37q-.09-1.77-1.94-1.86l-1.42-.1-.21,3.51c-.09,1.72-.02,2.08.27,2.24.31.18.99.22,1.91.29l.63.03c.95,0,1.63-.17,1.96-.5.38-.37.81-1.13,1.26-2.27l.14-.35,1.65.41-.08.4ZM91.54,185.27c-.15,1.3-.32,2.32-.54,3.76l-.09.67-1.69-.12v-.38c-.08-3.12-1.52-3.93-3.12-4.36-.44-.09-.9-.14-1.32-.14-2.98,0-4.73,2.71-5.4,5.28-1.1,4.22.2,7.59,3.2,8.36.46.12.86.17,1.24.17,1.45,0,2.64-.75,4.29-2.69l.21-.24,1.52.69-.21.42c-.54,1.01-1.65,2.97-2.36,3.89l-.1.17h-.22c-.7,0-3.09-.05-4.82-.48-6.97-1.81-8.28-7-7.29-10.88,1.07-4.1,4.61-6.75,9.03-6.75,1.04,0,2.08.12,3.16.4,1.76.45,3.18,1.19,3.92,1.59l.37.19.25.14-.02.3ZM73.65,182.27c-.47.66-1.23,1.86-2.36,4.12l-4.52,8.92-1.91-.96-3.15-14.5-1.84,3.62c-1.14,2.25-1.61,3.56-1.91,4.34-.15.46-.15.87,1.37,1.71l.35.19-.74,1.46-6.28-3.18.74-1.46.37.17c.45.21.81.32,1.1.32l.7-.41c.48-.69,1.22-1.85,2.37-4.11l2.24-4.43c.74-1.47.93-1.87.82-2.45-.1-.54-.44-.91-1.32-1.41l-.34-.2.73-1.45,4.45,2.24,3.35,13.57,1.5-2.98c1.14-2.26,1.65-3.56,1.91-4.33.16-.44.15-.84-1.37-1.71l-.35-.2.73-1.45,6.29,3.18-.74,1.46-.36-.18c-.44-.21-.81-.32-1.07-.32-.32,0-.52.13-.73.44M49.74,186.07l-5.98-4.85,1.02-1.25.86.52c.31.18.44.21.48.21.02,0,.14-.08.34-.73.1-.34.25-.8.41-1.25.17-.53.36-1.09.51-1.59l-2.99-2.44c-.62.35-1.37.87-2.07,1.38l-.25.13c-.59.43-.71.56-.74.65,0,.01,0,.1.43.54l.68.7-.99,1.25-5.06-4.11,1-1.22.33.2c.58.36.91.54,1.26.54.4,0,.94-.25,2.03-.85l12.21-6.92,1.73.73-1.8,5.04c-.88,2.52-1.88,5.41-2.92,8.56-.75,2.2-.55,2.4.26,3.25l.28.25-1.03,1.26ZM31.86,170.45l2.99-14.55-3.15,2.58c-1.95,1.58-2.95,2.6-3.52,3.19-.3.35-.46.73.57,2.12l.27.33-1.27,1.02-4.48-5.46,1.27-1.02.26.28c.5.55.88.83,1.22.83l.48-.16c.79-.49,1.91-1.25,3.83-2.81l3.82-3.15c1.27-1.03,1.61-1.33,1.77-1.9.1-.54-.07-1-.65-1.85l-.22-.33,1.25-1.02,3.13,3.86-2.44,13.76,2.58-2.1c1.98-1.62,2.95-2.59,3.52-3.19.33-.35.46-.73-.56-2.15l-.24-.3,1.24-1.04,4.47,5.45-1.26,1.05-.26-.32c-.5-.54-.88-.8-1.2-.8l-.51.17c-.75.46-1.88,1.21-3.8,2.81l-7.77,6.32-1.36-1.64ZM21.38,156.19l-4.02-7.15,1.39-.81.21.33c.56.82.78,1.06,1.09,1.06.37,0,1.01-.33,2.02-.89l7.5-4.24c2.15-1.21,2.12-1.25,1.47-2.72l-.16-.35,1.39-.79,4.05,7.15-1.42.78-.22-.33c-.56-.82-.77-1.03-1.09-1.03-.37,0-1.01.3-2.02.85l-7.5,4.25c-2.15,1.2-2.11,1.27-1.44,2.75l.17.33-1.42.81ZM15.51,140.87l.1.37-1.52.58-3.04-7.94,1.5-.58.17.35c.5,1.01.65,1.15,1.01,1.15.4,0,1.07-.21,2.01-.58l8.05-3.11c2.3-.9,2.29-.94,1.86-2.45l-.12-.37,1.51-.58,4.46,11.6-.36.17c-.39.19-2.04.94-3.54,1.64l-.38.17-.74-1.52.32-.2c.94-.61,1.46-1.09,1.65-1.5.19-.39.05-1.13-.46-2.41l-.39-1-.21-.52-.41.14-4.64,1.76.66,1.69c.51,1.43.68,1.58,1.05,1.58.29,0,.67-.1,1.2-.21l.33-.1.63,1.6-5.72,2.17-.61-1.57.34-.18q1.46-.79.78-2.5l-.64-1.69-3.15,1.2c-2.3.9-2.29.93-1.71,2.82M7.77,107.18h5.94l1.8-5.59,1.76,5.59h5.94l-4.74,3.6,1.85,5.73-4.81-3.53-4.81,3.53,1.86-5.73-4.79-3.6ZM11.59,73.66l.39.07c.39.09,2.21.42,3.83.73l.44.06-.31,1.67-.37-.02h-.61c-.76-.01-1.27.09-1.6.28-.39.21-.69.87-1.04,2.19l-.29,1.06-.11.55.41.14,4.78,1.24.48-1.74q.45-1.8-1.05-2.41l-.31-.15.42-1.61,5.89,1.54-.42,1.64-.37-.07c-.42-.05-.77-.08-1.02-.08-.52,0-.65,0-1.08,1.67l-.48,1.74,3.27.87c.82.21,1.41.36,1.81.36.54,0,.71-.16,1.23-1.65l.13-.37,1.55.41-2.18,8.23-1.55-.41.06-.38c.28-1.53.29-1.62-2.11-2.23l-8.32-2.21c-.88-.22-1.49-.36-1.89-.36-.49,0-.65.12-1.06,1.27l-.13.36-1.55-.4,3.16-12.01ZM18.18,58.39l.36.14c.39.16,2.06.79,3.65,1.41l.41.12-.6,1.61-.36-.1c-.65-.12-1.18-.22-1.57-.22l-.63.12c-.44.11-.86.74-1.44,1.98l-.4.89-.22.52.39.2,4.28,1.96.58-1.26q.77-1.67-.72-2.61l-.32-.19.72-1.57,5.76,2.68-.72,1.53-.36-.12c-.62-.2-1.07-.34-1.33-.34-.34,0-.51.18-1.11,1.48l-.58,1.28,3.19,1.48c.92.42,1.55.69,1.9.69l.3-.11c.27-.24.57-.84.95-1.7.55-1.19.7-2.06.49-2.58-.2-.47-.75-1.16-1.64-2l-.29-.27.98-1.37.35.22c.86.56,2.97,2.09,3.52,2.61l.22.21-5.49,11.89-1.47-.67.14-.36c.63-1.71.64-1.74-1.6-2.79l-7.81-3.6c-1.01-.47-1.64-.72-2.03-.72-.34,0-.53.2-1.04,1.1l-.19.34-1.47-.69,5.18-11.19ZM25.32,47.28c1.93-2.64,4.07-4.17,6.29-4.56.39-.08.78-.11,1.18-.11,1.64,0,3.26.54,4.59,1.53,4.67,3.46,5.02,8.82.91,14.39l-4,5.44-1.3-.95.21-.34c.92-1.48.93-1.5-1.07-2.97l-6.93-5.11c-.99-.73-1.59-1.13-1.96-1.13-.29,0-.55.25-1.07.86l-.25.28-1.3-.95,4.7-6.37ZM43.46,27.99l.27.29c.32.28,1.64,1.58,2.82,2.7l.31.3-1.16,1.22-.31-.21c-.91-.65-1.53-.96-2-.99h-.06c-.41,0-1.03.39-2.03,1.28l-.74.64-.4.38.29.35,3.16,3.51,1.03-.94q1.36-1.25.37-2.66l-.21-.32,1.27-1.13,4.22,4.7-1.24,1.14-.3-.24c-.62-.55-1.02-.89-1.3-.89-.27,0-.76.39-1.38.96l-1.06.94,2.36,2.61c.82.92,1.33,1.43,1.62,1.43l.14-.02c.36-.12.87-.56,1.54-1.21,1-.87,1.48-1.59,1.48-2.15.01-.53-.23-1.39-.73-2.52l-.13-.32,1.44-.88.25.34c.56.84,1.89,3.08,2.18,3.78l.13.26-9.74,8.78-1.09-1.19.29-.29c1.28-1.32,1.29-1.35-.36-3.19l-5.77-6.39c-.91-1-1.44-1.51-1.79-1.51-.27,0-.61.22-1.17.64l-.29.26-1.09-1.22,9.16-8.25ZM53.5,21.13c1.97-1.2,3.25-1.66,4.46-1.66h.05c1.39.01,2.68.79,3.46,2.09,1.04,1.72.94,3.58-.31,5.4.8.46,2.19,1.23,3.18,1.74,1.45.71,2.48,1.16,3.12,1.36.41.13.69.17.97.17h.2s-.05-.19-.05-.19l.31-.17c1.22-.59,1.4-.67,1.45-2.93l.38-14.04,1.52-1.1,3.39,4.12c1.69,2.06,3.66,4.38,5.81,6.92,1.14,1.35,1.6,1.59,2.06,1.59.24,0,.54-.06.87-.13l.38-.1.54,1.5-7.26,2.62-.55-1.49.91-.48c.37-.2.41-.3.41-.3,0-.02-.01-.17-.44-.67-.26-.27-.54-.62-.87-.99-.37-.42-.75-.89-1.1-1.27l-3.62,1.31c0,.7.04,1.61.08,2.5l.04.25c.05.97.12.97.26.97l.55-.07.97-.23.55,1.5-5.28,1.91.07.17-1.15.61c-1.53.81-2.61,1.16-3.57,1.17-.81,0-1.53-.27-2.16-.58-1.3-.59-2.71-1.5-3.93-2.29-.33-.21-.55-.32-.73-.32l-.65.26-.11.07,1.44,2.41c.87,1.39,1.23,1.79,1.6,1.79.24,0,.61-.13,1.19-.44l.35-.17.85,1.37-6.94,4.24-.86-1.37.33-.25c1.33-.96,1.38-1,.09-3.1l-4.49-7.35c-.84-1.43-1.2-1.83-1.56-1.83-.24,0-.59.16-1.16.42l-.35.18-.82-1.37,6.13-3.76ZM91,7.64l.27,1.58-.37.11c-1.69.39-1.74.4-1.35,2.85l1.37,8.42c.27,1.73.44,2.06.73,2.12l.39.03c.38,0,.84-.06,1.32-.12,1.14-.18,1.94-.54,2.26-1.03.27-.47.54-1.32.73-2.47l.05-.36,1.69.05v.43c0,.98-.07,3.62-.2,4.36l-.04.28-12.53,2.02-.24-1.58.38-.1c1.77-.42,1.8-.42,1.41-2.87l-1.35-8.53c-.38-2.33-.58-2.33-1.34-2.33l-.76.04-.38.03-.28-1.58,8.25-1.32ZM179.04,104.48c0,41.12-33.43,74.59-74.57,74.59S29.85,145.6,29.85,104.48,63.33,29.88,104.47,29.88s74.57,33.45,74.57,74.6M105.22,21.72h.38s.56.02.56.02c1.05,0,1.19,0,1.48-2.41l1-8.54c.3-2.48.28-2.48-1.52-2.81l-.38-.09.18-1.59,8.29.97-.19,1.59h-.38s-.47-.02-.47-.02c-1.03,0-1.16,0-1.46,2.42l-.33,2.76,6.08.71.31-2.75c.3-2.46.22-2.47-1.37-2.8l-.38-.06.18-1.62,8.3.97-.2,1.62-.39-.02h-.59c-1.06-.01-1.22-.01-1.5,2.37l-.99,8.57c-.3,2.45-.28,2.46,1.4,2.8l.39.06-.19,1.61-8.45-.98.18-1.62.39.02.68.02c1.05,0,1.22,0,1.51-2.37l.42-3.68-6.05-.72-.42,3.67c-.3,2.46-.27,2.46,1.41,2.8l.38.07-.19,1.61-8.3-1.01.2-1.58ZM127.04,17.91c1.05-2.82,3.85-6.12,8.35-6.12,1.13,0,2.29.22,3.46.64,2.19.82,3.88,2.35,4.8,4.37.93,2.02.97,4.41.15,6.69-1.43,3.86-4.5,6.15-8.26,6.15-1.12,0-2.26-.21-3.42-.61-4.69-1.71-6.82-6.4-5.09-11.12M147.04,27.19l3.07-4.74c1.38-2.07,1.3-2.13,0-3.14l-.29-.23.86-1.34,6.89,4.45-.88,1.38-.35-.18c-.56-.32-.89-.48-1.16-.48-.36,0-.73.39-1.6,1.79l-2.82,4.32c-2.07,3.18-2.12,5.35-.09,6.67.68.45,1.32.67,1.98.67,1.51,0,3.06-1.24,4.65-3.66l.89-1.37c1.4-2.11,2.02-3.36,2.39-4.11.2-.41.23-.83-1.18-1.86l-.33-.23.89-1.36,5.9,3.84-.9,1.39-.32-.24c-.5-.28-.88-.43-1.19-.43l-.65.35c-.58.69-1.44,1.74-2.79,3.81l-.99,1.55c-1.65,2.51-3.27,3.87-5.08,4.33-.44.09-.87.13-1.32.13-1.31,0-2.76-.43-3.92-1.19-1.75-1.13-2.83-2.43-3.29-3.87-.56-1.73-.05-3.66,1.64-6.26M173.45,34.38c.63.64,1.14,1.28,1.5,1.98l.25.44.31.53.1.24-.16.24c-.47.62-1.07,1.45-2.06,2.88l-.23.34-1.44-.92.16-.34c.69-1.45,1.24-2.95-.07-4.2-.41-.38-.89-.62-1.37-.62-.54,0-1.09.27-1.55.72-.7.74-.7,1.85,0,3.57l.34.83c.75,1.75,1.5,4.37-.68,6.64-1.06,1.09-2.43,1.68-3.88,1.68-1.62,0-3.24-.72-4.62-2.04-.64-.61-1.22-1.39-1.61-2.14-.3-.54-.52-1.04-.71-1.5l-.06-.18.08-.17c.26-.54.99-1.64,1.76-2.8l.61-.88,1.6.72-.2.39c-.61,1.23-1.35,3.92.21,5.43.46.41.94.65,1.47.65.58,0,1.17-.28,1.65-.77.96-.99,1.01-1.97.21-3.9l-.21-.52c-1.13-2.78-.93-4.99.6-6.57.99-1.05,2.3-1.62,3.71-1.62,1.52,0,3.02.67,4.31,1.9M178.17,42.33l-.21-.33,1.25-.99,5.06,6.45-1.25.98-.28-.27c-.56-.6-.84-.89-1.14-.89-.37,0-.95.41-1.92,1.2l-6.78,5.31c-1.97,1.52-1.94,1.57-1.05,2.91l.21.33-1.25.99-5.06-6.45,1.25-.99.28.27c.55.6.84.88,1.14.88.36,0,.96-.41,1.93-1.16l6.77-5.34c1.97-1.52,1.94-1.57,1.05-2.91M186.61,50.24l2.34,4.37-5.05,13.06,2.95-1.59c2.2-1.17,3.33-1.92,4.06-2.45.38-.27.61-.61-.15-2.18l-.18-.36,1.46-.77,3.3,6.21-1.42.77-.2-.35c-.55-.92-.91-1.05-1.2-1.05l-.38.09c-.83.33-2.08.83-4.26,2.03l-8.82,4.73-1.04-1.89,5.75-13.69-3.57,1.91c-2.23,1.19-3.38,1.99-4.06,2.45-.38.29-.61.61.15,2.21l.17.36-1.45.76-3.34-6.21,1.44-.78.21.33c.55.92.91,1.05,1.16,1.05l.39-.07c.76-.31,2.05-.84,4.29-2.03l4.36-2.36c1.45-.76,1.83-.98,2.07-1.52.24-.51.15-.99-.25-1.92l-.16-.36,1.43-.76ZM199.84,80.05c.43,1.48.65,3.1.68,4.89v.28s-.26.12-.26.12c-.82.31-2.03.76-3.91,1.49l-.39.16-.62-1.61.33-.17c2.16-1.12,2.81-2.67,2.17-5.05-.64-2.2-2.5-3.48-5.13-3.48-.82,0-1.73.11-2.66.39-1.38.38-3.28,1.14-4.56,2.59-1.14,1.3-1.48,2.85-.98,4.61.23.88.49,1.17,1,1.17l.52-.07,2.16-.6q1.42-.38.95-2.71l-.06-.38,1.66-.45,2.2,7.91-1.63.47-.16-.33c-.37-.78-.43-.8-.64-.8-.27,0-.65.08-1.22.24l-1.65.45c-.71.2-1.55.46-2.08.72l-.32.18-.24-.34c-.8-1.34-1.93-3.19-2.46-5.1-1.58-5.77.7-10.39,5.82-11.82.9-.24,1.79-.37,2.63-.37,4.1,0,7.57,2.99,8.84,7.63M178.36,30.59C158.59,10.86,132.33,0,104.47,0S50.31,10.86,30.58,30.59C10.82,50.33,0,76.57,0,104.48s10.82,54.14,30.58,73.88c19.73,19.73,45.94,30.6,73.88,30.6s54.12-10.86,73.89-30.6c19.68-19.74,30.58-45.97,30.58-73.88s-10.9-54.15-30.58-73.88"/>
  </g>
  <polygon class="st0" points="120.49 193.56 122.91 193.06 121 189.82 120.49 193.56"/>
  <polygon class="st0" points="72.65 22.25 74.99 21.39 72.6 18.48 72.65 22.25"/>
  <g>
    <path class="st0" d="M133.36,27.38c.4.15.79.21,1.19.21,1.86,0,3.54-1.73,4.69-4.9,1.65-4.48,1.05-7.64-1.68-8.62-.36-.14-.71-.2-1.08-.2-1.96,0-3.8,1.85-4.93,4.93-.73,2.01-.97,3.93-.67,5.43.29,1.61,1.14,2.64,2.48,3.15"/>
    <path class="st0" d="M56.79,28.85l.25-.16c.84-.51,1.25-.94,1.46-1.53.43-1.18-.02-2.33-.48-3.05-.61-1.03-1.42-1.56-2.37-1.56-.51,0-1.04.15-1.47.45l-.66.45.29.53,2.98,4.88Z"/>
  </g>
  <path class="st0" d="M104.52,37.88l64.73,56.8-5.72-.07-2.76-.02v6.04l-56.33-50.12h-.01l-56.26,50.12v-6.04l-2.76.02-5.72.07,64.82-56.8ZM160.78,142.74h-8.95v-33.91h.1l-.1-.08v-5.93l8.95.09v39.82ZM149.07,100.07v6.33l-44.54-38.74h-.03l-44.63,38.77v-6.36h-2.69s-4.38.05-4.38.05l51.63-46.02,51.69,46.02-4.28-.04h-2.77ZM149.07,146.34h-7.18v-37.6l7.18.07v37.53ZM139.22,106.01v45.75h-69.41v-45.75h-2.77l-2.61.03,40.09-34.8,40.01,34.8-2.62-.03h-2.69ZM67.05,146.34h-7.17v-37.53l7.17-.07v37.6ZM57.21,108.76l-.09.08h.09v33.91h-9.03v-39.82l9.03-.09v5.93ZM45.42,97.33v48.1h11.78v3.63h9.84v5.43h74.84v-5.43h9.93v-3.63h11.7v-48.1l13.05.12-72.04-63.17h-.03l-72.08,63.17,13-.12Z"/>
  <g>
    <path class="st0" d="M86.9,116.54c-.46-.03-.91-.04-1.41-.04-.65,0-1.49,0-2.46.02-1.48.02-2.87.03-4.21.03-.93,0-2.04-.01-3.3-.05h-.43s0,1.73,0,1.73l.4.02c1.1.08,1.31.14,1.34.15.02.06.13.49.17,2.61.03,1.56.05,3.06.05,4.45,0,1.86-.05,3.49-.14,4.92l-.06.46c-.07.05-.4.11-1.34.12h-.41v1.8l.43-.05c1.77-.04,3.15-.06,4.06-.06,1.01,0,2.11.03,3.26.06l.43.05v-1.78l-.39-.02c-1.35-.06-1.62-.14-1.68-.15l-.04-.02c0-.05-.06-.34-.1-1.6l-.06-3.82h1.02c1.29-.01,1.79.07,2,.12h.04c.03.13.08.46.13,1.48l.02.39h1.79v-.42c-.03-1.31-.04-2.3-.04-2.89s.01-1.28.03-1.91v-.43s-1.75,0-1.75,0l-.05.39c-.04.8-.1,1.1-.12,1.17-.14.03-.55.06-1.89.06-.45,0-.83,0-1.18-.02v-.09l-.02-2.37c0-.44.03-1.19.12-2.23.56-.04,1.11-.06,1.59-.06.85,0,1.48.04,1.93.13.31.06.47.1.57.12l.04.45.1,1.55h1.74v-.41c.04-1.23.12-2.28.28-3.18l.02-.14-.26-.58h-.24Z"/>
    <path class="st0" d="M101.71,116.57c-.66,0-1.88-.02-3.7-.06h-.43s0,1.74,0,1.74l.4.02c1.14.07,1.4.16,1.42.16h0s.08.11.1.5c.05.73.07,2.16.07,4.31-.67.02-1.61.03-2.82.03-1.37,0-2.44,0-3.2-.04v-.52c0-1.08.02-2.16.08-3.18.03-.88.08-1.08.09-1.1.03,0,.29-.08,1.46-.16l.39-.02v-1.75l-.43.02c-1.11.04-2.36.06-3.71.06-.87,0-2.03-.02-3.49-.06l-.42-.02v1.75l.39.02c1.24.09,1.48.16,1.51.19.02.11.09.59.1,3.19v6c.01,1.99-.07,2.72-.11,2.98l-.05.22c-.05.02-.35.1-1.45.14h-.39v1.79l4.12-.1c.67,0,1.38.02,2.2.04l1.72.06v-1.77l-.39-.02c-1.03-.06-1.33-.16-1.44-.17-.02-.06-.07-.26-.09-.81-.07-.95-.1-2.4-.1-4.3v-.32c1.09-.02,2.35-.03,3.72-.03h2.29c-.02,2.47-.05,4.12-.08,4.89-.02.38-.09.54-.11.58-.09.03-.42.12-1.39.16h-.4v1.79l.43-.04c1.46-.04,2.72-.06,3.81-.06.53,0,1.25.02,2.16.04l1.63.06v-1.77l-.4-.02c-1.17-.07-1.41-.16-1.43-.16l-.08-.09c-.01-.07-.05-.35-.07-1.83l-.06-4.99c0-.98.02-2.28.06-3.85.03-1.34.09-1.62.09-1.63.07,0,.29-.08,1.48-.17l.4-.02v-1.75l-.43.02c-1.2.04-2.39.06-3.46.06"/>
    <path class="st0" d="M117.28,126.98c-.05-1.31-.05-2.3-.05-2.89s0-1.28.05-1.91v-.43s-1.79,0-1.79,0l-.02.39c-.04.8-.12,1.1-.14,1.17-.11.02-.55.05-1.9.05-.42,0-.8,0-1.15-.01v-2.45c-.01-.44.01-1.19.07-2.23.56-.04,1.11-.06,1.62-.06.82,0,1.48.04,1.91.13.33.05.49.1.56.12l.04.45.13,1.55h1.71v-.4c.04-1.24.15-2.29.32-3.19l.02-.14-.29-.57h-.24c-.43-.04-.91-.05-1.37-.05-.68,0-1.49,0-2.46.02-1.48.02-2.9.03-4.24.03-.92,0-2.04-.01-3.27-.05h-.46s0,1.73,0,1.73l.4.02c1.1.08,1.32.14,1.37.16.02.06.09.48.14,2.61.06,1.56.07,3.06.07,4.45,0,1.86-.06,3.49-.14,4.92l-.06.47c-.1.05-.43.11-1.37.12h-.42v1.79l.46-.04c1.77-.04,3.13-.06,4.04-.06,1.04,0,2.12.02,3.29.06l.43.05v-1.78h-.39c-1.35-.08-1.65-.17-1.68-.18l-.02-.02s-.1-.33-.13-1.59l-.04-3.82h1c1.28-.01,1.81.07,2.02.12h.02c.03.13.1.45.16,1.48l.02.39h1.79v-.42Z"/>
    <path class="st0" d="M123.99,125.95c-.57,0-1.09,0-1.6-.03l1.7-4.15,1.72,4.15c-.57.02-1.18.03-1.83.03M132.35,130.76c-.04-.08-.26-.39-1.11-2.33l-5.08-12.05h-2.19l-3.98,9.78c-.71,1.69-1.28,3.01-1.7,3.94-.26.55-.37.68-.36.68-.02.01-.21.09-1.08.15l-.39.02v1.85l.46-.06c.58-.04,1.38-.06,2.38-.06,1.06,0,1.96.02,2.67.06l.44.05v-1.84l-.39-.03c-.95-.1-1.28-.15-1.35-.17l.04-.28c.18-.64.35-1.14.46-1.45l.39-.99c.73,0,1.54-.02,2.38-.02.97,0,1.9.01,2.76.02l.62,1.59c.31.78.39,1.09.41,1.18-.11.02-.45.06-1.3.11l-.4.02v1.84l.46-.04c1.13-.04,2.32-.06,3.59-.06,1.04,0,2.18.03,3.37.06l.43.04v-1.83l-.39-.03c-.9-.07-1.11-.16-1.12-.16"/>
  </g>
</svg>